Normalized EMG Linear Envelopes
nRows=112
nColumns=4

endheader
time	 med_gas_r	  soleus_r	 tib_ant_r	
2.8629	  0.016315	  0.013697	  0.005264	
2.93448	  0.016945	  0.013932	  0.005048	
3.00605	  0.017468	  0.013951	  0.004849	
3.07762	  0.017393	  0.013873	  0.004670	
3.14919	  0.016914	  0.013771	  0.004979	
3.22077	  0.016786	  0.013685	  0.006408	
3.29234	  0.017214	  0.013849	  0.009083	
3.36391	  0.018400	  0.014352	  0.011655	
3.43548	  0.018863	  0.014762	  0.012114	
3.50706	  0.018516	  0.014824	  0.010051	
3.57863	  0.017937	  0.014409	  0.007195	
3.6502	  0.017552	  0.013832	  0.005226	
3.72177	  0.017708	  0.013618	  0.004527	
3.79335	  0.018067	  0.013906	  0.004901	
3.86492	  0.018281	  0.014144	  0.006170	
3.93649	  0.018366	  0.014035	  0.007844	
4.00806	  0.018592	  0.013743	  0.008323	
4.07964	  0.018848	  0.013483	  0.007275	
4.15121	  0.018975	  0.013158	  0.006042	
4.22278	  0.019049	  0.012739	  0.005158	
4.29435	  0.018840	  0.012667	  0.004691	
4.36593	  0.018225	  0.013111	  0.004522	
4.4375	  0.016983	  0.013752	  0.004688	
4.50907	  0.016228	  0.014432	  0.005223	
4.58065	  0.016395	  0.015333	  0.006182	
4.65222	  0.017983	  0.016047	  0.007417	
4.72379	  0.019276	  0.015897	  0.007889	
4.79536	  0.019757	  0.014616	  0.006754	
4.86694	  0.018558	  0.012324	  0.005345	
4.93851	  0.015821	  0.009280	  0.004526	
5.01008	  0.011438	  0.006145	  0.004616	
5.08165	  0.007817	  0.005853	  0.005687	
5.15323	  0.010199	  0.014722	  0.007995	
5.2248	  0.028437	  0.041559	  0.011793	
5.29637	  0.073540	  0.092126	  0.019283	
5.36794	  0.148731	  0.153002	  0.031540	
5.43952	  0.235262	  0.193405	  0.044613	
5.51109	  0.303056	  0.215050	  0.053872	
5.58266	  0.357732	  0.236374	  0.058946	
5.65423	  0.416863	  0.259597	  0.059614	
5.72581	  0.471767	  0.289308	  0.059971	
5.79738	  0.523339	  0.320800	  0.064259	
5.86895	  0.564110	  0.360350	  0.071431	
5.94052	  0.603246	  0.401403	  0.076220	
6.0121	  0.636289	  0.426501	  0.078341	
6.08367	  0.653819	  0.440464	  0.077461	
6.15524	  0.664359	  0.453235	  0.074772	
6.22681	  0.664132	  0.455019	  0.074749	
6.29839	  0.674832	  0.444382	  0.077865	
6.36996	  0.713231	  0.438372	  0.081069	
6.44153	  0.788809	  0.443023	  0.084970	
6.5131	  0.886204	  0.457769	  0.088068	
6.58468	  0.972648	  0.483407	  0.087735	
6.65625	  0.998384	  0.504378	  0.084118	
6.72782	  0.963695	  0.501833	  0.078452	
6.7994	  0.908408	  0.490128	  0.073988	
6.87097	  0.866797	  0.487610	  0.074308	
6.94254	  0.843856	  0.493666	  0.076995	
7.01411	  0.812753	  0.488927	  0.077409	
7.08569	  0.762755	  0.475800	  0.076300	
7.15726	  0.715925	  0.469910	  0.074109	
7.22883	  0.691883	  0.475348	  0.073290	
7.3004	  0.697837	  0.489232	  0.073807	
7.37198	  0.706732	  0.500859	  0.076723	
7.44355	  0.705439	  0.505297	  0.081286	
7.51512	  0.701965	  0.507705	  0.085504	
7.58669	  0.703833	  0.512829	  0.089142	
7.65827	  0.709140	  0.523843	  0.091046	
7.72984	  0.726447	  0.537983	  0.091720	
7.80141	  0.753668	  0.558299	  0.095152	
7.87298	  0.783727	  0.573988	  0.101126	
7.94456	  0.800378	  0.566852	  0.104321	
8.01613	  0.787170	  0.544891	  0.101390	
8.0877	  0.761152	  0.524971	  0.094270	
8.15927	  0.750751	  0.512601	  0.087158	
8.23085	  0.764982	  0.507587	  0.083410	
8.30242	  0.792496	  0.502236	  0.083258	
8.37399	  0.796771	  0.506356	  0.086505	
8.44556	  0.769489	  0.521894	  0.092728	
8.51714	  0.736515	  0.534780	  0.098546	
8.58871	  0.727456	  0.548651	  0.100549	
8.66028	  0.749612	  0.562436	  0.099881	
8.73185	  0.769753	  0.559912	  0.096003	
8.80343	  0.760993	  0.545640	  0.089880	
8.875	  0.761948	  0.532534	  0.082041	
8.94657	  0.764766	  0.519024	  0.077111	
9.01815	  0.741995	  0.503109	  0.074711	
9.08972	  0.692045	  0.484268	  0.074057	
9.16129	  0.634646	  0.461763	  0.075607	
9.23286	  0.587567	  0.441612	  0.076965	
9.30444	  0.542025	  0.421298	  0.075256	
9.37601	  0.509173	  0.406892	  0.071591	
9.44758	  0.486823	  0.395629	  0.067404	
9.51915	  0.485866	  0.395929	  0.065970	
9.59073	  0.496426	  0.400971	  0.066797	
9.6623	  0.489614	  0.402000	  0.066915	
9.73387	  0.468475	  0.391167	  0.065453	
9.80544	  0.437077	  0.361753	  0.060312	
9.87702	  0.394639	  0.318111	  0.053012	
9.94859	  0.343036	  0.269902	  0.046796	
10.0202	  0.298873	  0.229923	  0.042850	
10.0917	  0.270812	  0.198723	  0.041096	
10.1633	  0.248449	  0.177980	  0.039565	
10.2349	  0.229748	  0.163408	  0.036676	
10.3065	  0.215612	  0.151392	  0.033480	
10.378	  0.191736	  0.140000	  0.030909	
10.4496	  0.157636	  0.126728	  0.028409	
10.5212	  0.123026	  0.112750	  0.026027	
10.5927	  0.095614	  0.098103	  0.023895	
10.6643	  0.070331	  0.082599	  0.022236	
10.7359	  0.045735	  0.065287	  0.019664	
10.8075	  0.027266	  0.048155	  0.016084	
